Coordinates
version=1
nRows=16
nColumns=36
inDegrees=yes

Units are S.I. units (second, meters, Newtons, ...)
If the header above contains a line with 'inDegrees', this indicates whether rotational values are in degrees (yes) or radians (no).

endheader
time	pelvis_tilt	pelvis_list	pelvis_rotation	pelvis_tx	pelvis_ty	pelvis_tz	hip_flexion_r	hip_adduction_r	hip_rotation_r	knee_angle_r	knee_angle_r_beta	ankle_angle_r	subtalar_angle_r	mtp_angle_r	hip_flexion_l	hip_adduction_l	hip_rotation_l	knee_angle_l	knee_angle_l_beta	ankle_angle_l	subtalar_angle_l	mtp_angle_l	lumbar_extension	lumbar_bending	lumbar_rotation	arm_flex_r	arm_add_r	arm_rot_r	elbow_flex_r	pro_sup_r	arm_flex_l	arm_add_l	arm_rot_l	elbow_flex_l	pro_sup_l
      0.33000000	      1.26157185	     -0.22496228	      3.20439251	      0.29127648	      0.96995749	     -0.23316763	     -0.88985361	      3.79699808	      9.66822693	      8.21605627	      0.14339723	     10.31307337	      4.28958984	     -6.43198063	     22.66697798	     -0.60559039	      9.21872792	     36.45798268	      0.63631184	      2.39077124	      1.58159386	     -6.43198063	     -7.28708892	      0.49680130	      0.06562454	    -19.70760051	     -6.17729043	    -11.47227279	     40.37699616	    111.31031428	    -11.14381421	     -4.14347803	    -18.89618741	     30.76978113	    109.44905747
      0.34000000	      1.30917123	     -0.28102254	      2.78746722	      0.30283070	      0.96964337	     -0.23272272	     -1.88845897	      3.86673244	      9.88972436	      7.87409894	      0.13742895	     10.76166889	      4.67872350	     -6.44695522	     22.84351476	     -0.84131710	      9.00932773	     32.98380835	      0.57567606	      1.85764852	      2.41021028	     -6.44695522	     -7.45534688	      0.57755162	      0.45011830	    -19.57262409	     -6.39069454	    -11.37077504	     40.79586420	    111.35471871	    -11.35111899	     -4.14386567	    -19.25827257	     30.75562887	    109.37082231
      0.35000000	      1.42562530	     -0.39455295	      2.38468585	      0.31443944	      0.96905862	     -0.23237703	     -2.96546127	      3.99321965	     10.16195806	      7.55484794	      0.13185697	     11.29177539	      4.99568683	     -6.46194238	     22.88889236	     -1.13482846	      8.85929153	     29.53459422	      0.51547591	      1.36497009	      3.32227124	     -6.46194238	     -7.69835527	      0.72197365	      0.79404670	    -19.43382142	     -6.64635503	    -11.29448945	     41.21383289	    111.38826566	    -11.52107869	     -4.12878235	    -19.64372728	     30.71703690	    109.28326370
      0.36000000	      1.55333459	     -0.56854852	      2.00490115	      0.32600718	      0.96808156	     -0.23214568	     -4.04404043	      4.17521495	     10.48210431	      7.26732841	      0.12683881	     11.86528606	      5.23411636	     -6.47752880	     22.88745037	     -1.48005163	      8.81851894	     26.16956420	      0.45674506	      1.01813578	      4.25912953	     -6.47752880	     -7.96897845	      0.95792727	      1.08420999	    -19.25607622	     -6.91101015	    -11.25565923	     41.61862984	    111.40553478	    -11.66448114	     -4.08571735	    -20.03383879	     30.66944382	    109.19284174
      0.37000000	      1.58941175	     -0.82779543	      1.66018968	      0.33753671	      0.96662273	     -0.23206733	     -4.97116359	      4.44174951	     10.90731147	      7.10762420	      0.12405144	     12.41525661	      5.36301234	     -6.48806663	     22.98446915	     -1.87034222	      9.00112217	     22.96242662	      0.40076995	      0.87376238	      5.15361111	     -6.48806663	     -8.12104266	      1.29682735	      1.31119690	    -19.04189874	     -7.18605841	    -11.26998037	     41.97416103	    111.41063415	    -11.82479488	     -4.04920113	    -20.31202628	     30.60261127	    109.12721939
      0.38000000	      1.79962331	     -1.01686988	      1.33909209	      0.34918075	      0.96510759	     -0.23203667	     -6.17923661	      4.62325112	     11.30820864	      6.78617853	      0.11844116	     13.11270378	      5.41670385	     -6.50197615	     22.82130916	     -2.22025116	      9.09281496	     19.81968374	      0.34591874	      0.80640774	      6.15396618	     -6.50197615	     -8.52552635	      1.52016990	      1.50014864	    -18.83588623	     -7.41769422	    -11.30801243	     42.31846914	    111.40085605	    -11.88130666	     -3.99009249	    -20.65881138	     30.52768222	    109.04463688
      0.39000000	      2.01811894	     -1.24537090	      1.06574912	      0.36085558	      0.96335159	     -0.23224517	     -7.39862509	      4.82488826	     11.75885480	      6.49932413	      0.11343461	     13.75985617	      5.42680307	     -6.52115170	     22.65194077	     -2.57564263	      9.23988792	     16.86145079	      0.29428783	      0.92977276	      7.11652472	     -6.52115170	     -8.89420328	      1.84425691	      1.64227794	    -18.55902046	     -7.65284674	    -11.42928394	     42.63819472	    111.37030285	    -11.93787395	     -3.94677082	    -21.03111791	     30.48440235	    108.95923913
      0.40000000	      1.96400636	     -1.60887283	      0.81361893	      0.37240318	      0.96089359	     -0.23253071	     -8.19226741	      5.18302666	     12.15276502	      6.44684270	      0.11251863	     14.33671263	      5.39108778	     -6.52841639	     22.87677150	     -3.04964117	      9.47676610	     14.23966814	      0.24852909	      1.22604022	      7.78972156	     -6.52841639	     -8.95830222	      2.29403597	      1.69583179	    -18.27562896	     -7.91936407	    -11.56078209	     42.85610451	    111.35640443	    -12.07530395	     -3.88612358	    -21.15556165	     30.41074777	    108.92758583
      0.41000000	      2.14971875	     -1.79658170	      0.58526851	      0.38401636	      0.95868906	     -0.23293058	     -9.33978172	      5.32214574	     12.68092613	      6.26437372	      0.10933395	     15.11276918	      5.30881559	     -6.53855368	     22.67761189	     -3.34513244	      9.85771275	     11.54839030	      0.20155743	      1.43952171	      8.77965000	     -6.53855368	     -9.35029269	      2.55240021	      1.76173528	    -17.96462367	     -8.08637975	    -11.73885185	     43.07139075	    111.33516452	    -12.04821907	     -3.89375252	    -21.33714340	     30.33372150	    108.88231125
      0.42000000	      2.28597929	     -2.03275955	      0.38465377	      0.39571469	      0.95627289	     -0.23342547	    -10.41690570	      5.50592823	     13.07867154	      6.11248954	      0.10668307	     15.76468505	      5.25165700	     -6.54806779	     22.61178677	     -3.67936550	     10.00430833	      9.19776786	      0.16053133	      1.71190257	      9.57157524	     -6.54806779	     -9.64449548	      2.85063925	      1.78784561	    -17.63260661	     -8.22870129	    -11.98119726	     43.25121860	    111.30982403	    -12.04691974	     -3.87680443	    -21.47135536	     30.26275046	    108.84695577
      0.43000000	      2.52812956	     -2.18421952	      0.21648002	      0.40752561	      0.95398945	     -0.23397254	    -11.67382863	      5.58727647	     13.42506895	      5.82313489	      0.10163288	     16.34413927	      5.21925871	     -6.57449530	     22.42787788	     -3.91184977	      9.93394235	      7.09222064	      0.12378260	      1.93495985	     10.45642569	     -6.57449530	    -10.12268833	      3.03887306	      1.84292253	    -17.36147990	     -8.26703761	    -12.52349026	     43.44454204	    111.26196352	    -11.95438885	     -3.89503495	    -21.69005975	     30.23940404	    108.79388764
      0.44000000	      2.49963636	     -2.40811877	      0.03715291	      0.41932046	      0.95127538	     -0.23455513	    -12.49824483	      5.75420701	     13.71129058	      5.81906675	      0.10156187	     16.96510679	      5.19003054	     -6.58414110	     22.59381284	     -4.19071065	     10.03232643	      5.33423666	      0.09309999	      2.20800910	     11.07140623	     -6.58414110	    -10.23698557	      3.29848504	      1.81786668	    -17.04517233	     -8.36217494	    -12.80075265	     43.53649952	    111.24129788	    -11.94394462	     -3.91899364	    -21.74650020	     30.16059571	    108.77607360
      0.45000000	      2.59329696	     -2.52833673	     -0.12033880	      0.43132253	      0.94880493	     -0.23518930	    -13.53060057	      5.78725631	     13.89029506	      5.67644767	      0.09907270	     17.59070126	      5.28683888	     -6.59990769	     22.62782025	     -4.33994812	      9.90621432	      3.87398084	      0.06761372	      2.40848088	     11.75102986	     -6.59990769	    -10.49940822	      3.42767641	      1.83640613	    -16.76222018	     -8.34462911	    -13.26777538	     43.57318759	    111.20572042	    -11.84179325	     -3.96889420	    -21.84219513	     30.08232209	    108.75144004
      0.46000000	      2.54379827	     -2.64928859	     -0.30305451	      0.44340979	      0.94618516	     -0.23576923	    -14.34875158	      5.82276071	     14.05279641	      5.66263377	      0.09883160	     18.11456627	      5.40556242	     -6.61164015	     22.87125742	     -4.47248944	      9.75509212	      2.81771241	      0.04917836	      2.68524676	     12.25753074	     -6.61164015	    -10.57610611	      3.53710989	      1.81164538	    -16.48369250	     -8.33689252	    -13.66641592	     43.60619078	    111.17667195	    -11.79159359	     -4.04897002	    -21.92745939	     29.99101988	    108.73258409
      0.47000000	      2.47154345	     -2.72049316	     -0.48050950	      0.45567657	      0.94363715	     -0.23635524	    -15.14723609	      5.80067790	     14.15359327	      5.64544378	      0.09853158	     18.62292612	      5.56453910	     -6.62303673	     23.17495333	     -4.53092988	      9.47840901	      2.15314786	      0.03757952	      3.00709433	     12.70860588	     -6.62303673	    -10.60445326	      3.56274962	      1.79462561	    -16.23054726	     -8.24530685	    -14.07903234	     43.58838241	    111.14421765	    -11.70789148	     -4.12691771	    -22.03918615	     29.89305607	    108.71376712
      0.48000000	      2.37309688	     -2.75298664	     -0.67445171	      0.46814640	      0.94115751	     -0.23691076	    -15.90302582	      5.72881281	     14.10419786	      5.67144765	      0.09898543	     19.11741604	      5.89664766	     -6.64473467	     23.55386378	     -4.54128272	      8.95353909	      1.88879435	      0.03296568	      3.44563862	     13.36381120	     -6.64473467	    -10.59062442	      3.53318942	      1.87113118	    -16.05594659	     -8.08080112	    -14.70745699	     43.53582682	    111.10884590	    -11.57161963	     -4.20162559	    -22.25106318	     29.80371665	    108.69908363
